# xmcd CD database file
#
# Track frame offsets:
#	150
#	13164
#	28167
#	43169
#	58370
#	76422
#	91295
#	106782
#	123534
#	137331
#	152788
#	167370
#	181666
#	195380
#	209555
#	223813
#
# Disc length: 3196 seconds
#
# Revision: 1
# Processed by: cddbd v1.5.2PL0 Copyright (c) Steve Scherf et al.
# Submitted via: CDex 1.70beta2
#
DISCID=db0c7a10
DTITLE=Kelsea Ballerini - The First Time
DYEAR=2015
DGENRE=Country
TTITLE0=XO
TTITLE1=Peter Pan
TTITLE2=Love Me Like You Mean It
TTITLE3=Square Pegs
TTITLE4=The First Time
TTITLE5=Looking At Stars
TTITLE6=Sirens
TTITLE7=Secondhand Smoke
TTITLE8=Dibs
TTITLE9=Stilettos
TTITLE10=Yeah Boy
TTITLE11=Underage
TTITLE12=Love Me Like You Mean It (Acoustic)
TTITLE13=Dibs (Acoustic)
TTITLE14=Peter Pan (Acoustic)
TTITLE15=The First Time (Acoustic)
EXTD=YEAR: 2015
EXTT0=
EXTT1=
EXTT2=
EXTT3=
EXTT4=
EXTT5=
EXTT6=
EXTT7=
EXTT8=
EXTT9=
EXTT10=
EXTT11=
EXTT12=
EXTT13=
EXTT14=
EXTT15=
PLAYORDER=
